/*
 * LeftArrow.bmp -- down arrow bitmap.
 * CVS: $id$
 */
#define LeftArrow_width 12
#define LeftArrow_height 12
static unsigned char LeftArrow_bits[] = {
   0x00, 0x00, 0x00, 0x06, 0x80, 0x07, 0xe0, 0x07, 0xf8, 0x07, 0xfe, 0x07,
   0xfe, 0x07, 0xf8, 0x07, 0xe0, 0x07, 0x80, 0x07, 0x00, 0x06, 0x00, 0x00};
