/*
 * RightArrow.bmp -- down arrow bitmap.
 * CVS: $id$
 */
#define RightArrow_width 12
#define RightArrow_height 12
static unsigned char RightArrow_bits[] = {
   0x00, 0x00, 0x06, 0x00, 0x1e, 0x00, 0x7e, 0x00, 0xfe, 0x01, 0xfe, 0x07,
   0xfe, 0x07, 0xfe, 0x01, 0x7e, 0x00, 0x1e, 0x00, 0x06, 0x00, 0x00, 0x00};
