#define Thumb_width 12
#define Thumb_height 12
#define Thumb_x_hot 5
#define Thumb_y_hot 5
static unsigned char Thumb_bits[] = {
   0x05, 0x0a, 0x00, 0x00, 0x01, 0x08, 0x00, 0x00, 0x00, 0x00, 0x00, 0x00,
   0x00, 0x00, 0x00, 0x00, 0x00, 0x00, 0x01, 0x08, 0x00, 0x00, 0x05, 0x0a};
