/*
 * UpArrow.bmp -- down arrow bitmap.
 * CVS: $id$
 */
#define UpArrow_width 12
#define UpArrow_height 12
static unsigned char UpArrow_bits[] = {
   0x00, 0x00, 0x60, 0x00, 0x60, 0x00, 0xf0, 0x00, 0xf0, 0x00, 0xf8, 0x01,
   0xf8, 0x01, 0xfc, 0x03, 0xfc, 0x03, 0xfe, 0x07, 0xfe, 0x07, 0x00, 0x00};
